<svg width="56" height="61" viewBox="0 0 56 61" fill="none" xmlns="http://www.w3.org/2000/svg">
<g clip-path="url(#clip0_1_795)">
<path d="M21.8171 0.000892236C23.3792 0.604128 24.9064 1.32991 26.5099 1.78194C28.7347 2.40587 30.8864 1.97295 32.8537 0.795124C34.4238 -0.14395 35.889 -0.0977893 37.413 0.896992C40.4324 2.86746 43.4994 4.77106 46.5125 6.75266C47.0513 7.11026 47.4921 7.59727 47.7949 8.16925C50.4488 13.4456 53.055 18.7458 55.6739 24.0396C56.2746 25.2524 56.0728 25.9066 54.8793 26.5862C52.1778 28.1333 49.4842 29.6836 46.7747 31.2132C46.6183 31.2845 46.4881 31.4032 46.4026 31.5526C46.3171 31.7019 46.2805 31.8743 46.2979 32.0456C46.3117 36.6327 46.3143 41.2193 46.3059 45.8054C46.3198 46.0232 46.3112 46.2419 46.2804 46.458C46.1803 46.945 45.8752 47.2363 45.3635 47.2109C44.8518 47.1854 44.5689 46.8925 44.5197 46.3863C44.5038 46.2081 44.5085 46.0298 44.5085 45.85V20.7767C44.5085 20.6573 44.5085 20.538 44.5085 20.4186C44.5292 19.7533 44.8439 19.3888 45.3985 19.3904C45.9531 19.392 46.2979 19.7708 46.3011 20.4202C46.3106 22.8634 46.3011 25.305 46.3011 27.7418V29.4146L54.0768 24.958C54.0053 24.7797 53.9513 24.6174 53.875 24.4661C51.3175 19.2965 48.7579 14.1279 46.1962 8.9603C46.1074 8.74236 45.9653 8.55025 45.783 8.40163C43.4232 6.87205 41.049 5.36157 38.643 3.82245C38.5763 3.99116 38.5127 4.12487 38.465 4.26652C36.3514 10.6634 29.3242 13.6955 23.2426 10.8337C23.028 10.7318 22.8167 10.622 22.6069 10.4994C22.1302 10.2065 21.9712 9.73544 22.189 9.28819C22.4067 8.84093 22.9104 8.71837 23.4603 8.92051C24.552 9.31683 25.6342 9.81821 26.7641 10.0076C31.2137 10.7557 35.8111 7.63447 36.887 3.2431C36.968 2.91363 36.9378 2.68124 36.6025 2.5173C36.3069 2.37246 36.0352 2.17826 35.6856 1.96498C35.2692 4.31744 34.1489 6.14309 32.2133 7.41959C30.7999 8.36715 29.1075 8.80648 27.4125 8.66583C24.1849 8.42549 21.0559 6.14147 20.2867 2.02547C19.8897 2.24595 19.5085 2.49377 19.1457 2.76716C19.044 2.8547 19.079 3.17148 19.1298 3.36248C19.4623 4.59223 20.0504 5.73774 20.8557 6.72402C21.1465 7.08851 21.253 7.53419 20.9224 7.8573C20.6967 8.07854 20.274 8.17563 19.9387 8.17563C19.7448 8.17563 19.4826 7.91935 19.3666 7.71402C18.731 6.59987 18.1382 5.46343 17.5343 4.33177C17.4711 4.1898 17.418 4.04353 17.3754 3.89406C17.2038 3.98638 17.0576 4.05324 16.9098 4.14396C14.7306 5.51809 12.5545 6.89752 10.3816 8.28225C10.1499 8.42696 9.95898 8.62858 9.82697 8.86797C7.22395 14.1034 4.62834 19.3432 2.04015 24.5871C1.9877 24.6906 1.95275 24.802 1.89395 24.9516L9.67124 29.4082V28.6761C9.67124 25.9554 9.67124 23.2353 9.67124 20.5157C9.67124 19.7946 9.97635 19.4015 10.5326 19.3856C11.0395 19.3761 11.3637 19.6259 11.4447 20.1321C11.4705 20.3694 11.4779 20.6083 11.467 20.8467V59.1625H44.4783V50.4737C44.4783 50.2955 44.4783 50.1156 44.4783 49.9389C44.5165 49.3914 44.828 49.0699 45.3254 49.0524C45.445 49.0429 45.5654 49.0584 45.6787 49.0981C45.7921 49.1377 45.8959 49.2005 45.9837 49.2826C46.0714 49.3647 46.1412 49.4641 46.1884 49.5747C46.2357 49.6852 46.2595 49.8043 46.2582 49.9246C46.2916 50.617 46.2693 51.3141 46.2709 52.0081C46.2709 54.4115 46.2709 56.8138 46.2709 59.2151C46.2709 60.4566 45.7338 60.9929 44.4974 60.9929H11.4654C10.237 60.9929 9.69984 60.4518 9.69984 59.2071C9.69984 50.1729 9.70302 41.1392 9.70938 32.1061C9.70938 31.6556 9.59019 31.4042 9.18337 31.1766C6.48182 29.6629 3.81364 28.1158 1.13116 26.5799C-0.0638812 25.8955 -0.27206 25.2492 0.336584 24.0332C2.9555 18.7394 5.57335 13.445 8.19015 8.15013C8.47304 7.55728 8.92191 7.05959 9.48213 6.71765C12.2711 4.96683 15.0441 3.19374 17.8315 1.4652C18.6976 0.927225 19.6209 0.47997 20.5172 -0.00866699L21.8171 0.000892236ZM22.2382 2.12735C22.4988 4.79178 25.3688 7.02963 28.277 6.89434C30.8864 6.77178 33.634 4.50685 33.6594 2.42816C29.801 4.55779 26.0061 4.08986 22.2382 2.12735Z" fill="#062D3E"/>
</g>
<defs>
<clipPath id="clip0_1_795">
<rect width="56" height="61" fill="white" transform="translate(0.00286865 0.000915527)"/>
</clipPath>
</defs>
</svg>
