<svg width="69" height="96" viewBox="0 0 69 96" fill="none" xmlns="http://www.w3.org/2000/svg">
<g clip-path="url(#clip0_1_783)">
<path d="M30.62 51.5354C30.62 51.5354 29.0088 63.1928 27.5453 73.8679C27.2644 73.8872 26.985 73.9256 26.7091 73.9828C25.3328 74.2669 24.0857 74.9958 23.1589 76.0577C22.2322 77.1196 21.6769 78.4559 21.5783 79.8618C21.4797 81.2676 21.8432 82.6654 22.6131 83.8408C23.383 85.0162 24.5167 85.9044 25.8405 86.3692C25.4812 89.0372 25.2433 90.8313 25.2152 91.1406C25.0502 92.8971 26.7946 93.3375 27.1742 91.5252C27.2778 91.0282 27.6059 89.1326 28.0102 86.7259C28.4261 86.7232 28.8409 86.6793 29.2486 86.595C30.6271 86.311 31.8761 85.581 32.8037 84.517C33.7313 83.453 34.2861 82.1141 34.3828 80.7061C34.4794 79.298 34.1127 77.8988 33.3389 76.7235C32.565 75.5482 31.427 74.6619 30.0997 74.2009C31.31 66.0991 55.7603 9.41193 54.5806 8.4C53.4009 7.38807 37.4176 38.1191 30.62 51.5354ZM32.5779 79.3406C32.7606 80.2526 32.6694 81.1994 32.316 82.0614C31.9626 82.9234 31.3628 83.6618 30.5925 84.1833C29.8221 84.7048 28.9158 84.986 27.9882 84.9913C27.0605 84.9965 26.1531 84.7257 25.3808 84.2129C24.6084 83.7002 24.0058 82.9686 23.649 82.1107C23.2922 81.2527 23.1974 80.307 23.3764 79.3929C23.5555 78.4789 24.0004 77.6377 24.655 76.9756C25.3095 76.3135 26.1443 75.8604 27.0537 75.6734C27.6578 75.5491 28.2798 75.5455 28.8844 75.6626C29.489 75.7797 30.0642 76.0152 30.5772 76.3558C31.0902 76.6963 31.5309 77.1352 31.8742 77.6474C32.2175 78.1595 32.4566 78.7349 32.5779 79.3406Z" fill="#062D3E"/>
<path d="M16.6405 63.8996L15.462 64.685C14.6054 63.7725 13.5008 63.1322 12.284 62.8427C11.0672 62.5533 9.79135 62.6274 8.61335 63.056C7.43534 63.4846 6.4066 64.2489 5.65368 65.2549C4.90076 66.2609 4.45652 67.4647 4.3756 68.7182C4.29468 69.9718 4.58059 71.2203 5.19819 72.3103C5.8158 73.4004 6.73814 74.2842 7.85175 74.8533C8.96535 75.4223 10.2216 75.6516 11.4661 75.5131C12.7105 75.3745 13.8887 74.8741 14.8559 74.0734C15.03 74.2018 15.1637 74.2979 15.2502 74.3586C16.8538 75.4775 17.8944 73.8565 16.49 72.6164C16.4495 72.5799 16.3749 72.5159 16.27 72.4302C17.1281 71.0101 17.4076 69.3143 17.0501 67.6969C16.9895 67.4215 16.9105 67.1505 16.8138 66.8857C25.9384 61.1933 35.9056 54.9537 35.9056 54.9537C45.3519 43.2522 66.8395 16.0999 65.4274 15.4344C64.0152 14.7689 22.4311 60.8592 16.6405 63.8996ZM15.3586 68.076C15.5588 68.9842 15.4859 69.9325 15.1491 70.8012C14.8124 71.6698 14.2269 72.4196 13.4667 72.956C12.7065 73.4923 11.8057 73.7909 10.8782 73.8142C9.95079 73.8375 9.03832 73.5843 8.25617 73.0867C7.47402 72.5891 6.85732 71.8694 6.48405 71.0187C6.11079 70.1679 5.99772 69.2242 6.15913 68.3069C6.32055 67.3897 6.74919 66.54 7.39089 65.8654C8.03258 65.1908 8.85851 64.7215 9.76423 64.5169C10.9792 64.2429 12.251 64.464 13.3001 65.1314C14.3492 65.7988 15.0896 66.858 15.3586 68.076Z" fill="#062D3E"/>
<path d="M32.8491 51.92C32.9152 52.2168 33.0676 52.4869 33.2869 52.6963C33.5062 52.9057 33.7827 53.045 34.0814 53.0966C34.3801 53.1482 34.6877 53.1097 34.9653 52.9861C35.2429 52.8625 35.4781 52.6592 35.6412 52.402C35.8042 52.1448 35.8879 51.8451 35.8815 51.5409C35.8752 51.2366 35.7792 50.9414 35.6055 50.6925C35.4319 50.4436 35.1885 50.2522 34.9061 50.1424C34.6236 50.0326 34.3147 50.0093 34.0185 50.0756C33.8211 50.1197 33.6342 50.2025 33.4685 50.3192C33.3028 50.4359 33.1616 50.5842 33.053 50.7555C32.9443 50.9269 32.8704 51.118 32.8354 51.3178C32.8004 51.5176 32.8051 51.7223 32.8491 51.92Z" fill="#FBBD08"/>
</g>
<defs>
<clipPath id="clip0_1_783">
<rect width="35.2873" height="88.6952" fill="white" transform="translate(36.1123 0.481934) rotate(23.5379)"/>
</clipPath>
</defs>
</svg>
